# xmcd CD database file
#
# Track frame offsets:
#	150
#	20215
#	48042
#
# Disc length: 875 seconds
#
# Revision: 1
# Processed by: cddbd v1.5.2PL0 Copyright (c) Steve Scherf et al.
# Submitted via: CDex 1.51
#
DISCID=1d036903
DTITLE=Jennifer Lopez - If You My Had My Love [CD single)
DYEAR=1999
DGENRE=R&B
TTITLE0=If You My Had My Love
TTITLE1=If You My Had My Love (Metro Club Mix)
TTITLE2=If You My Had My Love (Pablo Flores Remix Edit)
EXTD=YEAR: 1999
EXTT0=
EXTT1=
EXTT2=
PLAYORDER=
